<svg width="160" height="32" viewBox="0 0 160 32" fill="none"
    xmlns="http://www.w3.org/2000/svg">
    <path d="M23.8926 32H8.10738C3.62416 32 0 28.349 0 23.8926V8.10738C0 3.62416 3.62416 0 8.10738 0H23.8926C28.3758 0 32 3.62416 32 8.10738V23.8926C32 28.349 28.349 32 23.8926 32Z" fill="url(#paint0_linear)"/>
    <path d="M22.9797 20.0266L18.4159 15.4629V15.436V6.04005C18.4159 5.31521 17.8253 4.72461 17.1005 4.72461H11.2213C10.4965 4.72461 9.90585 5.31521 9.90585 6.04005V17.7716C9.90585 18.5501 10.2012 19.2749 10.7381 19.8119L16.9931 26.04C17.7985 26.8454 18.8723 27.2749 19.9998 27.2749C21.1273 27.2749 22.2012 26.8454 23.0065 26.04C23.8119 25.2347 24.2414 24.1609 24.2414 23.0333C24.2146 21.9058 23.785 20.832 22.9797 20.0266ZM22.6307 25.6642C21.9059 26.389 20.9394 26.7649 19.9998 26.7649C19.0334 26.7649 18.0938 26.389 17.3689 25.6642L11.1139 19.436C10.6575 18.9796 10.4159 18.389 10.4159 17.7716V6.0132C10.4159 5.58367 10.7649 5.20783 11.2213 5.20783H17.1005C17.53 5.20783 17.9059 5.55682 17.9059 6.0132V15.4092C17.9059 15.5434 17.9595 15.7045 18.0669 15.8119L22.6307 20.3756C23.3287 21.0736 23.7314 22.0132 23.7314 23.0065C23.7045 24.0266 23.3287 24.9662 22.6307 25.6642Z" fill="white"/>
    <path d="M21.879 21.1278L21.6642 20.9131L20.9394 20.1882L17.3152 16.5372C17.0199 16.2419 16.8589 15.8393 16.8589 15.4097V7.08758V6.52382C16.8589 6.36274 16.7246 6.22852 16.5636 6.22852H11.7313C11.5703 6.22852 11.436 6.36274 11.436 6.52382V7.08758V17.7453C11.436 18.0943 11.5703 18.4433 11.8387 18.6849L17.1273 23.9735L17.8521 24.6983L18.0669 24.9131C18.577 25.4231 19.2481 25.6916 19.9729 25.6916C20.6978 25.6916 21.3689 25.4231 21.879 24.9131C22.3891 24.403 22.6575 23.7319 22.6575 23.007C22.6844 22.3091 22.4159 21.6379 21.879 21.1278Z" fill="white"/>
    <path d="M11.456 8.32812H16.852V7.30799L11.456 7.30799V8.32812Z" fill="#2058E8"/>
    <path d="M11.456 10.3691H16.852V9.34901H11.456V10.3691Z" fill="#2058E8"/>
    <path d="M90.765 12.3475C91.0603 12.3475 91.3288 12.1327 91.3825 11.8374L91.7852 9.93137C91.8657 9.52868 91.5704 9.17969 91.1677 9.17969H85.6375H83.0872C82.7382 9.17969 82.4697 9.47499 82.4697 9.79714V22.1461C82.4697 22.4951 82.765 22.7636 83.0872 22.7636H85.6375H90.765C91.0603 22.7636 91.3288 22.5488 91.3825 22.2535L91.7852 20.3475C91.8657 19.9448 91.5704 19.5958 91.1677 19.5958H85.6375V17.5555H90.2281C90.5234 17.5555 90.7919 17.3408 90.8456 17.0455L91.2483 15.1394C91.3288 14.7367 91.0335 14.3877 90.6308 14.3877H85.6375V12.3475H90.765Z" fill="#1F1F1F"/>
    <path d="M46.8456 19.6231H42.1208V9.82448C42.1208 9.47549 41.8255 9.20703 41.5033 9.20703H39.5973C39.2483 9.20703 38.9799 9.50233 38.9799 9.82448V22.1735C38.9799 22.5225 39.2752 22.7909 39.5973 22.7909H46.4429C46.7382 22.7909 47.0067 22.5762 47.0604 22.2809L47.4631 20.3748C47.5436 19.999 47.2483 19.6231 46.8456 19.6231Z" fill="#1F1F1F"/>
    <path d="M54.1209 9.01953H53.1544H53.1276C50.3893 9.01953 48.1611 11.2477 48.1611 13.986V17.986C48.1611 20.7242 50.3893 22.9524 53.1276 22.9524H54.094H54.1209C56.8591 22.9524 59.0873 20.7242 59.0873 17.986V13.986C59.0873 11.2477 56.8591 9.04638 54.1209 9.01953ZM55.8927 17.6907C55.8927 18.845 54.9531 19.7846 53.7987 19.7846H53.5571H53.396C52.2417 19.7578 51.3289 18.845 51.3289 17.6907V14.3081C51.3289 13.1538 52.2685 12.2142 53.4229 12.2142H53.6645H53.8256C54.9799 12.241 55.8927 13.1538 55.8927 14.3081V17.6907Z" fill="#1F1F1F"/>
    <path d="M126.899 9.01953H126.523H126.497H126.47H125.987C123.248 9.01953 121.02 11.2477 121.02 13.986V17.986C121.02 20.7242 123.248 22.9524 125.987 22.9524H126.416H126.846C129.584 22.9524 131.812 20.7242 131.812 17.986V13.986C131.866 11.2477 129.638 9.04638 126.899 9.01953ZM128.698 17.6907C128.698 18.845 127.758 19.7846 126.604 19.7846H126.47V19.8383V19.7846H126.336C125.181 19.7846 124.242 18.845 124.242 17.6907V14.3081C124.242 13.1538 125.181 12.2142 126.336 12.2142H126.523H126.631C127.785 12.2142 128.725 13.1538 128.725 14.3081L128.698 17.6907Z" fill="#1F1F1F"/>
    <path d="M139.06 9.01953H138.684H138.658H138.631H138.147C135.409 9.01953 133.181 11.2477 133.181 13.986V17.986C133.181 20.7242 135.409 22.9524 138.147 22.9524H138.577H139.007C141.745 22.9524 143.973 20.7242 143.973 17.986V13.986C144.027 11.2477 141.798 9.04638 139.06 9.01953ZM140.832 17.6907C140.832 18.845 139.892 19.7846 138.738 19.7846H138.604V19.8115V19.7846H138.47C137.315 19.7846 136.376 18.845 136.376 17.6907V14.3081C136.376 13.1538 137.315 12.2142 138.47 12.2142H138.658H138.765C139.919 12.2142 140.859 13.1538 140.859 14.3081L140.832 17.6907Z" fill="#1F1F1F"/>
    <path d="M68.0804 19.6231H66.926H65.6911C64.5368 19.6231 63.5972 18.6835 63.5972 17.5292V14.4688C63.5972 13.3144 64.5368 12.3748 65.6911 12.3748H66.926H68.0804H68.3488C68.8321 12.3748 69.2347 11.9721 69.2347 11.4889V10.0929C69.2347 9.60972 68.8321 9.20703 68.3488 9.20703H65.369C62.6307 9.20703 60.4025 11.4352 60.4025 14.1735V17.8513C60.4025 20.5896 62.6307 22.8178 65.369 22.8178H68.3488C68.8321 22.8178 69.2347 22.4151 69.2347 21.9319V20.5359C69.2347 20.0527 68.8321 19.65 68.3488 19.65H68.0804V19.6231Z" fill="#1F1F1F"/>
    <path d="M103.571 21.8523L100.993 17.3691C102.228 16.5905 103.061 15.1946 103.061 13.6107C103.061 11.1409 101.074 9.1543 98.6041 9.1543H93.7719C93.4229 9.1543 93.1545 9.42275 93.1545 9.77175V22.1207C93.1545 22.4697 93.4229 22.7382 93.7719 22.7382H95.678C96.027 22.7382 96.2954 22.4697 96.2954 22.1207V18.0402H97.7182L100.269 22.4429C100.376 22.6308 100.591 22.765 100.805 22.765H103.007C103.517 22.7919 103.812 22.2818 103.571 21.8523ZM96.2954 14.8993V12.3489H98.6041C99.3021 12.3489 99.8927 12.9127 99.8927 13.6375C99.8927 14.3355 99.329 14.9261 98.6041 14.9261H96.2954V14.8993Z" fill="#1F1F1F"/>
    <path d="M120.215 21.8523L117.638 17.3691C118.872 16.5905 119.705 15.1946 119.705 13.6107C119.705 11.1409 117.718 9.1543 115.248 9.1543H110.416C110.067 9.1543 109.799 9.42275 109.799 9.77175V22.1207C109.799 22.4697 110.067 22.7382 110.416 22.7382H112.322C112.671 22.7382 112.94 22.4697 112.94 22.1207V18.0402H114.362L116.913 22.4429C117.02 22.6308 117.235 22.765 117.45 22.765H119.651C120.161 22.7919 120.456 22.2818 120.215 21.8523ZM112.94 14.8993V12.3489H115.248C115.946 12.3489 116.537 12.9127 116.537 13.6375C116.537 14.3355 115.973 14.9261 115.248 14.9261H112.94V14.8993Z" fill="#1F1F1F"/>
    <path d="M81.208 21.8508L77.0201 14.6025L80.4295 10.1998C80.7516 9.79714 80.4563 9.17969 79.9194 9.17969H77.208C77.0201 9.17969 76.8322 9.26022 76.698 9.4213L73.7181 13.3945V9.82398C73.7181 9.47499 73.4228 9.20653 73.1006 9.20653H71.1946C70.8456 9.20653 70.5771 9.50183 70.5771 9.82398V22.173C70.5771 22.522 70.8724 22.7904 71.1946 22.7904H73.1006C73.4496 22.7904 73.7181 22.522 73.7181 22.173V18.871L74.9261 17.3139L77.906 22.4683C78.0134 22.6562 78.2282 22.7904 78.4429 22.7904H80.6443C81.1543 22.7904 81.4496 22.2804 81.208 21.8508Z" fill="#1F1F1F"/>
    <path d="M157.933 9.17969H156.618H155.248C154.953 9.17969 154.712 9.36761 154.631 9.63606L152.618 16.9918L150.604 9.66291C150.524 9.39445 150.282 9.20653 149.987 9.20653H148.618H147.302H146.067C145.718 9.20653 145.45 9.50183 145.45 9.82398V22.173C145.45 22.522 145.745 22.7904 146.067 22.7904H147.973C148.322 22.7904 148.591 22.4951 148.591 22.173V13.9851L150.873 22.334C150.953 22.6025 151.195 22.7904 151.49 22.7904H153.691C153.987 22.7904 154.228 22.6025 154.309 22.334L156.591 13.9851V22.173C156.591 22.522 156.886 22.7904 157.208 22.7904H159.114C159.463 22.7904 159.732 22.4951 159.732 22.173V9.82398C159.732 9.47499 159.436 9.20653 159.114 9.20653H157.933V9.17969Z" fill="#1F1F1F"/>
    <defs>
        <linearGradient id="paint0_linear" x1="30.3658" y1="2.62125" x2="1.34189" y2="29.651" gradientUnits="userSpaceOnUse">
            <stop stop-color="#FF0000"/>
            <stop offset="1" stop-color="#FF5C00"/>
        </linearGradient>
    </defs>
</svg>
